<?xml version="1.0" encoding="UTF-8"?>
<!DOCTYPE svg PUBLIC "-//W3C//DTD SVG 1.1//EN" "http://www.w3.org/Graphics/SVG/1.1/DTD/svg11.dtd">
<svg xmlns="http://www.w3.org/2000/svg" version="1.1" width="256px" height="256px" style="shape-rendering:geometricPrecision; text-rendering:geometricPrecision; image-rendering:optimizeQuality; fill-rule:evenodd; clip-rule:evenodd" xmlns:xlink="http://www.w3.org/1999/xlink">
<g><path style="opacity:1" fill="#f9f39b" d="M 117.5,-0.5 C 121.167,-0.5 124.833,-0.5 128.5,-0.5C 128.5,0.5 128.5,1.5 128.5,2.5C 125.277,4.61015 121.61,5.61015 117.5,5.5C 117.5,3.5 117.5,1.5 117.5,-0.5 Z"/></g>
<g><path style="opacity:1" fill="#f8e62c" d="M 129.5,-0.5 C 132.167,-0.5 134.833,-0.5 137.5,-0.5C 137.5,1.83333 137.5,4.16667 137.5,6.5C 137.167,6.5 136.833,6.5 136.5,6.5C 133.833,6.5 131.167,6.5 128.5,6.5C 125.662,4.69409 125.995,3.69409 129.5,3.5C 129.5,2.16667 129.5,0.833333 129.5,-0.5 Z"/></g>
<g><path style="opacity:1" fill="#f7e929" d="M 138.5,-0.5 C 138.833,-0.5 139.167,-0.5 139.5,-0.5C 139.85,2.04082 139.85,4.37415 139.5,6.5C 139.167,6.5 138.833,6.5 138.5,6.5C 138.5,4.16667 138.5,1.83333 138.5,-0.5 Z"/></g>
<g><path style="opacity:1" fill="#f7eb5f" d="M 128.5,-0.5 C 128.833,-0.5 129.167,-0.5 129.5,-0.5C 129.5,0.833333 129.5,2.16667 129.5,3.5C 125.995,3.69409 125.662,4.69409 128.5,6.5C 127.041,6.43255 125.708,6.76589 124.5,7.5C 121.941,7.80155 119.607,7.46822 117.5,6.5C 117.5,6.16667 117.5,5.83333 117.5,5.5C 121.61,5.61015 125.277,4.61015 128.5,2.5C 128.5,1.5 128.5,0.5 128.5,-0.5 Z"/></g>
<g><path style="opacity:1" fill="#f9e93a" d="M 115.5,-0.5 C 115.833,-0.5 116.167,-0.5 116.5,-0.5C 116.198,2.0593 116.532,4.39263 117.5,6.5C 119.607,7.46822 121.941,7.80155 124.5,7.5C 124.179,9.04814 123.179,9.71481 121.5,9.5C 121.5,12.1667 121.5,14.8333 121.5,17.5C 120.5,17.5 119.5,17.5 118.5,17.5C 117.167,17.5 115.833,17.5 114.5,17.5C 114.628,11.2044 114.961,5.20436 115.5,-0.5 Z"/></g>
<g><path style="opacity:1" fill="#f2be32" d="M 128.5,6.5 C 131.167,6.5 133.833,6.5 136.5,6.5C 136.5,8.83333 136.5,11.1667 136.5,13.5C 133.5,13.1667 132.167,14.5 132.5,17.5C 129.167,17.5 125.833,17.5 122.5,17.5C 122.167,17.5 121.833,17.5 121.5,17.5C 121.5,14.8333 121.5,12.1667 121.5,9.5C 123.179,9.71481 124.179,9.04814 124.5,7.5C 125.708,6.76589 127.041,6.43255 128.5,6.5 Z"/></g>
<g><path style="opacity:1" fill="#dd9308" d="M 136.5,6.5 C 136.833,6.5 137.167,6.5 137.5,6.5C 137.833,6.5 138.167,6.5 138.5,6.5C 138.833,6.5 139.167,6.5 139.5,6.5C 140.482,9.96192 140.815,13.6286 140.5,17.5C 139.167,17.5 137.833,17.5 136.5,17.5C 135.5,17.5 134.5,17.5 133.5,17.5C 133.768,19.099 133.434,20.4324 132.5,21.5C 132.5,20.1667 132.5,18.8333 132.5,17.5C 132.167,14.5 133.5,13.1667 136.5,13.5C 136.5,11.1667 136.5,8.83333 136.5,6.5 Z"/></g>
<g><path style="opacity:1" fill="#a9781b" d="M 112.5,6.5 C 113.65,11.3158 113.816,16.3158 113,21.5C 112.501,16.5111 112.334,11.5111 112.5,6.5 Z"/></g>
<g><path style="opacity:1" fill="#934f06" d="M 141.5,6.5 C 142.65,11.3158 142.816,16.3158 142,21.5C 141.501,16.5111 141.334,11.5111 141.5,6.5 Z"/></g>
<g><path style="opacity:1" fill="#772a01" d="M 114.5,17.5 C 115.833,17.5 117.167,17.5 118.5,17.5C 118.5,18.8333 118.5,20.1667 118.5,21.5C 118.167,21.5 117.833,21.5 117.5,21.5C 117.167,21.5 116.833,21.5 116.5,21.5C 116.167,21.5 115.833,21.5 115.5,21.5C 114.566,20.4324 114.232,19.099 114.5,17.5 Z"/></g>
<g><path style="opacity:1" fill="#ce8c12" d="M 118.5,17.5 C 119.5,17.5 120.5,17.5 121.5,17.5C 121.833,17.5 122.167,17.5 122.5,17.5C 122.5,18.8333 122.5,20.1667 122.5,21.5C 121.167,21.5 119.833,21.5 118.5,21.5C 118.5,20.1667 118.5,18.8333 118.5,17.5 Z"/></g>
<g><path style="opacity:1" fill="#5a2402" d="M 122.5,17.5 C 125.833,17.5 129.167,17.5 132.5,17.5C 132.5,18.8333 132.5,20.1667 132.5,21.5C 132.167,21.5 131.833,21.5 131.5,21.5C 131.167,21.5 130.833,21.5 130.5,21.5C 128.5,21.5 126.5,21.5 124.5,21.5C 124.167,21.5 123.833,21.5 123.5,21.5C 123.167,21.5 122.833,21.5 122.5,21.5C 122.5,20.1667 122.5,18.8333 122.5,17.5 Z"/></g>
<g><path style="opacity:1" fill="#552a03" d="M 136.5,17.5 C 137.833,17.5 139.167,17.5 140.5,17.5C 140.768,19.099 140.434,20.4324 139.5,21.5C 139.167,21.5 138.833,21.5 138.5,21.5C 138.167,21.5 137.833,21.5 137.5,21.5C 136.566,20.4324 136.232,19.099 136.5,17.5 Z"/></g>
<g><path style="opacity:1" fill="#f5e52f" d="M 136.5,17.5 C 136.232,19.099 136.566,20.4324 137.5,21.5C 137.5,23.5 137.5,25.5 137.5,27.5C 135.708,27.634 134.042,27.3007 132.5,26.5C 132.5,24.8333 132.5,23.1667 132.5,21.5C 133.434,20.4324 133.768,19.099 133.5,17.5C 134.5,17.5 135.5,17.5 136.5,17.5 Z"/></g>
<g><path style="opacity:1" fill="#f6ec37" d="M 117.5,21.5 C 117.833,21.5 118.167,21.5 118.5,21.5C 119.833,21.5 121.167,21.5 122.5,21.5C 122.5,24.8333 122.5,28.1667 122.5,31.5C 120.833,31.5 119.167,31.5 117.5,31.5C 117.5,28.1667 117.5,24.8333 117.5,21.5 Z"/></g>
<g><path style="opacity:1" fill="#f4ec88" d="M 115.5,21.5 C 115.833,21.5 116.167,21.5 116.5,21.5C 116.5,30.8333 116.5,40.1667 116.5,49.5C 116.167,49.5 115.833,49.5 115.5,49.5C 115.433,39.957 115.433,30.6237 115.5,21.5 Z"/></g>
<g><path style="opacity:1" fill="#f9f39e" d="M 117.5,31.5 C 119.167,31.5 120.833,31.5 122.5,31.5C 122.5,37.5 122.5,43.5 122.5,49.5C 120.833,49.5 119.167,49.5 117.5,49.5C 117.5,43.5 117.5,37.5 117.5,31.5 Z"/></g>
<g><path style="opacity:1" fill="#f4f13b" d="M 115.5,49.5 C 115.833,49.5 116.167,49.5 116.5,49.5C 116.5,50.5 116.5,51.5 116.5,52.5C 116.167,52.5 115.833,52.5 115.5,52.5C 114.167,51.5 114.167,50.5 115.5,49.5 Z"/></g>
<g><path style="opacity:1" fill="#f9f37b" d="M 117.5,53.5 C 118.5,53.5 119.5,53.5 120.5,53.5C 120.818,56.4815 119.818,58.8148 117.5,60.5C 116.5,60.5 115.5,60.5 114.5,60.5C 114.5,59.5 114.5,58.5 114.5,57.5C 115.5,57.5 116.5,57.5 117.5,57.5C 117.5,56.1667 117.5,54.8333 117.5,53.5 Z"/></g>
<g><path style="opacity:1" fill="#faf9bf" d="M 115.5,52.5 C 115.833,52.5 116.167,52.5 116.5,52.5C 116.5,53.1667 116.833,53.5 117.5,53.5C 117.5,54.8333 117.5,56.1667 117.5,57.5C 116.5,57.5 115.5,57.5 114.5,57.5C 114.216,55.5853 114.549,53.9187 115.5,52.5 Z"/></g>
<g><path style="opacity:1" fill="#f9e33e" d="M 123.5,21.5 C 123.833,21.5 124.167,21.5 124.5,21.5C 124.5,21.8333 124.5,22.1667 124.5,22.5C 124.5,31.8333 124.5,41.1667 124.5,50.5C 126.5,50.5 128.5,50.5 130.5,50.5C 130.5,41.1667 130.5,31.8333 130.5,22.5C 130.5,22.1667 130.5,21.8333 130.5,21.5C 130.833,21.5 131.167,21.5 131.5,21.5C 131.172,32.3464 131.506,43.0131 132.5,53.5C 134.167,53.5 135.833,53.5 137.5,53.5C 138.494,43.0131 138.828,32.3464 138.5,21.5C 138.833,21.5 139.167,21.5 139.5,21.5C 139.294,33.5919 139.628,45.5919 140.5,57.5C 136.833,57.5 133.167,57.5 129.5,57.5C 129.5,58.5 129.5,59.5 129.5,60.5C 126.833,60.5 124.167,60.5 121.5,60.5C 121.5,61.8333 121.5,63.1667 121.5,64.5C 128.022,64.8235 134.355,64.4902 140.5,63.5C 141.321,60.3586 141.821,57.0252 142,53.5C 142.497,56.146 142.664,58.8127 142.5,61.5C 150.167,61.5 157.833,61.5 165.5,61.5C 165.5,61.8333 165.5,62.1667 165.5,62.5C 157.41,62.1674 150.077,62.5008 143.5,63.5C 143.5,64.8333 143.5,66.1667 143.5,67.5C 141.139,67.6741 138.806,68.0074 136.5,68.5C 136.5,69.5 136.5,70.5 136.5,71.5C 134.167,71.5 131.833,71.5 129.5,71.5C 129.5,72.8333 129.5,74.1667 129.5,75.5C 130.833,75.5 132.167,75.5 133.5,75.5C 133.5,76.5 133.5,77.5 133.5,78.5C 133.167,78.5 132.833,78.5 132.5,78.5C 130.167,78.5 127.833,78.5 125.5,78.5C 125.5,77.5 125.5,76.5 125.5,75.5C 124.5,75.5 123.5,75.5 122.5,75.5C 122.5,74.1667 122.5,72.8333 122.5,71.5C 121.167,71.5 119.833,71.5 118.5,71.5C 118.756,67.7307 118.423,64.0641 117.5,60.5C 119.818,58.8148 120.818,56.4815 120.5,53.5C 119.5,53.5 118.5,53.5 117.5,53.5C 117.5,52.1667 117.5,50.8333 117.5,49.5C 119.167,49.5 120.833,49.5 122.5,49.5C 123.527,42.8754 123.861,33.5421 123.5,21.5 Z M 124.5,22.5 C 126.5,22.5 128.5,22.5 130.5,22.5C 130.5,31.8333 130.5,41.1667 130.5,50.5C 128.5,50.5 126.5,50.5 124.5,50.5C 124.5,41.1667 124.5,31.8333 124.5,22.5 Z"/></g>
<g><path style="opacity:1" fill="#e09001" d="M 132.5,39.5 C 134.167,39.5 135.833,39.5 137.5,39.5C 137.5,44.1667 137.5,48.8333 137.5,53.5C 135.833,53.5 134.167,53.5 132.5,53.5C 132.5,48.8333 132.5,44.1667 132.5,39.5 Z"/></g>
<g><path style="opacity:1" fill="#f3c02f" d="M 132.5,26.5 C 134.042,27.3007 135.708,27.634 137.5,27.5C 137.5,31.5 137.5,35.5 137.5,39.5C 135.833,39.5 134.167,39.5 132.5,39.5C 132.5,35.1667 132.5,30.8333 132.5,26.5 Z"/></g>
<g><path style="opacity:1" fill="#c07248" d="M 74.5,59.5 C 78.3112,58.3547 82.3112,58.1881 86.5,59C 82.5138,59.4988 78.5138,59.6655 74.5,59.5 Z"/></g>
<g><path style="opacity:1" fill="#cd8734" d="M 168.5,59.5 C 172.311,58.3547 176.311,58.1881 180.5,59C 176.514,59.4988 172.514,59.6655 168.5,59.5 Z"/></g>
<g><path style="opacity:1" fill="#f1c12e" d="M 140.5,57.5 C 140.5,59.5 140.5,61.5 140.5,63.5C 134.355,64.4902 128.022,64.8235 121.5,64.5C 121.5,63.1667 121.5,61.8333 121.5,60.5C 124.167,60.5 126.833,60.5 129.5,60.5C 129.5,59.5 129.5,58.5 129.5,57.5C 133.167,57.5 136.833,57.5 140.5,57.5 Z"/></g>
<g><path style="opacity:1" fill="#82491a" d="M 167.5,63.5 C 167.167,63.5 166.833,63.5 166.5,63.5C 166.5,62.8333 166.167,62.5 165.5,62.5C 165.5,62.1667 165.5,61.8333 165.5,61.5C 167.203,60.3398 167.869,61.0065 167.5,63.5 Z"/></g>
<g><path style="opacity:1" fill="#6f2d01" d="M 82.5,60.5 C 83.8333,60.5 85.1667,60.5 86.5,60.5C 86.5,61.5 86.5,62.5 86.5,63.5C 86.5,64.1667 86.1667,64.5 85.5,64.5C 84.5,64.5 83.5,64.5 82.5,64.5C 82.5,63.1667 82.5,61.8333 82.5,60.5 Z"/></g>
<g><path style="opacity:1" fill="#5a2903" d="M 172.5,60.5 C 172.5,61.8333 172.5,63.1667 172.5,64.5C 170.901,64.7678 169.568,64.4345 168.5,63.5C 168.5,62.5 168.5,61.5 168.5,60.5C 169.833,60.5 171.167,60.5 172.5,60.5 Z"/></g>
<g><path style="opacity:1" fill="#faf49f" d="M 114.5,63.5 C 114.5,64.8333 114.5,66.1667 114.5,67.5C 113.209,67.2627 112.209,67.596 111.5,68.5C 111.5,69.5 111.5,70.5 111.5,71.5C 105.5,71.5 99.5,71.5 93.5,71.5C 93.5,70.1667 93.5,68.8333 93.5,67.5C 98.2526,69.487 100.253,68.1536 99.5,63.5C 103.846,63.6657 108.179,63.499 112.5,63C 80.5069,62.1671 80.5069,61.6671 112.5,61.5C 112.336,58.8127 112.503,56.146 113,53.5C 113.179,57.0252 113.679,60.3586 114.5,63.5 Z"/></g>
<g><path style="opacity:1" fill="#fce599" d="M 72.5,60.5 C 73.6497,65.3158 73.8163,70.3158 73,75.5C 72.5007,70.5111 72.3341,65.5111 72.5,60.5 Z"/></g>
<g><path style="opacity:1" fill="#f9f7b1" d="M 78.5,60.5 C 79.4015,64.2407 78.0681,66.2407 74.5,66.5C 74.5,64.5 74.5,62.5 74.5,60.5C 75.8333,60.5 77.1667,60.5 78.5,60.5 Z"/></g>
<g><path style="opacity:1" fill="#faf164" d="M 157.5,63.5 C 160.167,63.5 162.833,63.5 165.5,63.5C 165.5,64.8333 165.5,66.1667 165.5,67.5C 162.833,67.5 160.167,67.5 157.5,67.5C 157.5,66.1667 157.5,64.8333 157.5,63.5 Z"/></g>
<g><path style="opacity:1" fill="#faf8bb" d="M 86.5,63.5 C 90.8333,63.5 95.1667,63.5 99.5,63.5C 100.253,68.1536 98.2526,69.487 93.5,67.5C 90.8333,67.5 88.1667,67.5 85.5,67.5C 85.5,66.5 85.5,65.5 85.5,64.5C 86.1667,64.5 86.5,64.1667 86.5,63.5 Z"/></g>
<g><path style="opacity:1" fill="#faf6ae" d="M 143.5,63.5 C 148.167,63.5 152.833,63.5 157.5,63.5C 157.5,64.8333 157.5,66.1667 157.5,67.5C 156.5,67.5 155.5,67.5 154.5,67.5C 154.5,68.8333 154.5,70.1667 154.5,71.5C 152.167,71.5 149.833,71.5 147.5,71.5C 147.5,70.1667 147.5,68.8333 147.5,67.5C 146.167,67.5 144.833,67.5 143.5,67.5C 143.5,66.1667 143.5,64.8333 143.5,63.5 Z"/></g>
<g><path style="opacity:1" fill="#f3bc35" d="M 172.5,60.5 C 175.167,60.5 177.833,60.5 180.5,60.5C 180.5,63.1667 180.5,65.8333 180.5,68.5C 177.833,68.5 175.167,68.5 172.5,68.5C 172.5,69.5 172.5,70.5 172.5,71.5C 166.5,71.5 160.5,71.5 154.5,71.5C 154.5,70.1667 154.5,68.8333 154.5,67.5C 155.5,67.5 156.5,67.5 157.5,67.5C 160.167,67.5 162.833,67.5 165.5,67.5C 165.5,66.1667 165.5,64.8333 165.5,63.5C 165.833,63.5 166.167,63.5 166.5,63.5C 166.833,63.5 167.167,63.5 167.5,63.5C 167.833,63.5 168.167,63.5 168.5,63.5C 169.568,64.4345 170.901,64.7678 172.5,64.5C 172.5,63.1667 172.5,61.8333 172.5,60.5 Z"/></g>
<g><path style="opacity:1" fill="#f9eb7e" d="M 78.5,60.5 C 78.8333,60.5 79.1667,60.5 79.5,60.5C 79.3808,64.347 80.0475,68.0137 81.5,71.5C 80.5,71.5 79.5,71.5 78.5,71.5C 78.5,70.5 78.5,69.5 78.5,68.5C 77.1667,68.5 75.8333,68.5 74.5,68.5C 74.5,67.8333 74.5,67.1667 74.5,66.5C 78.0681,66.2407 79.4015,64.2407 78.5,60.5 Z"/></g>
<g><path style="opacity:1" fill="#f6e84a" d="M 79.5,60.5 C 80.5,60.5 81.5,60.5 82.5,60.5C 82.5,61.8333 82.5,63.1667 82.5,64.5C 83.5,64.5 84.5,64.5 85.5,64.5C 85.5,65.5 85.5,66.5 85.5,67.5C 88.1667,67.5 90.8333,67.5 93.5,67.5C 93.5,68.8333 93.5,70.1667 93.5,71.5C 92.1667,71.5 90.8333,71.5 89.5,71.5C 86.8333,71.5 84.1667,71.5 81.5,71.5C 80.0475,68.0137 79.3808,64.347 79.5,60.5 Z"/></g>
<g><path style="opacity:1" fill="#d58a0a" d="M 180.5,68.5 C 180.958,71.3938 180.291,73.8938 178.5,76C 179.167,76.3333 179.833,76.6667 180.5,77C 179.333,77.5 178.5,78.3333 178,79.5C 177.79,77.9419 177.29,76.6085 176.5,75.5C 170.5,75.5 164.5,75.5 158.5,75.5C 153.5,75.5 148.5,75.5 143.5,75.5C 146.962,74.5184 150.629,74.185 154.5,74.5C 154.5,73.5 154.5,72.5 154.5,71.5C 160.5,71.5 166.5,71.5 172.5,71.5C 172.5,70.5 172.5,69.5 172.5,68.5C 175.167,68.5 177.833,68.5 180.5,68.5 Z"/></g>
<g><path style="opacity:1" fill="#f5ad21" d="M 181.5,60.5 C 182.65,65.3158 182.816,70.3158 182,75.5C 181.501,70.5111 181.334,65.5111 181.5,60.5 Z"/></g>
<g><path style="opacity:1" fill="#f2be36" d="M 114.5,60.5 C 115.5,60.5 116.5,60.5 117.5,60.5C 118.423,64.0641 118.756,67.7307 118.5,71.5C 119.833,71.5 121.167,71.5 122.5,71.5C 122.5,72.8333 122.5,74.1667 122.5,75.5C 123.5,75.5 124.5,75.5 125.5,75.5C 125.5,76.5 125.5,77.5 125.5,78.5C 127.833,78.5 130.167,78.5 132.5,78.5C 132.5,78.8333 132.5,79.1667 132.5,79.5C 131.5,79.5 130.5,79.5 129.5,79.5C 129.5,98.5 129.5,117.5 129.5,136.5C 129.5,141.5 129.5,146.5 129.5,151.5C 128.167,151.5 126.833,151.5 125.5,151.5C 125.5,150.167 125.5,148.833 125.5,147.5C 125.5,138.833 125.5,130.167 125.5,121.5C 125.5,114.5 125.5,107.5 125.5,100.5C 125.5,95.8333 125.5,91.1667 125.5,86.5C 124.432,85.5655 123.099,85.2322 121.5,85.5C 121.5,84.5 121.5,83.5 121.5,82.5C 120.5,82.5 119.5,82.5 118.5,82.5C 118.806,85.3854 118.473,88.0521 117.5,90.5C 115.598,93.3373 114.931,96.6707 115.5,100.5C 113.833,100.5 112.167,100.5 110.5,100.5C 110.5,94.5 110.5,88.5 110.5,82.5C 111.833,82.5 113.167,82.5 114.5,82.5C 114.5,77.8333 114.5,73.1667 114.5,68.5C 113.5,68.5 112.5,68.5 111.5,68.5C 112.209,67.596 113.209,67.2627 114.5,67.5C 114.5,66.1667 114.5,64.8333 114.5,63.5C 114.5,62.5 114.5,61.5 114.5,60.5 Z"/></g>
<g><path style="opacity:1" fill="#f3be36" d="M 143.5,67.5 C 144.833,67.5 146.167,67.5 147.5,67.5C 147.5,68.8333 147.5,70.1667 147.5,71.5C 149.833,71.5 152.167,71.5 154.5,71.5C 154.5,72.5 154.5,73.5 154.5,74.5C 150.629,74.185 146.962,74.5184 143.5,75.5C 143.232,77.099 143.566,78.4324 144.5,79.5C 144.5,80.5 144.5,81.5 144.5,82.5C 143.167,82.5 141.833,82.5 140.5,82.5C 140.5,81.1667 140.5,79.8333 140.5,78.5C 138.167,78.5 135.833,78.5 133.5,78.5C 133.5,77.5 133.5,76.5 133.5,75.5C 132.167,75.5 130.833,75.5 129.5,75.5C 129.5,74.1667 129.5,72.8333 129.5,71.5C 131.833,71.5 134.167,71.5 136.5,71.5C 136.5,70.5 136.5,69.5 136.5,68.5C 138.806,68.0074 141.139,67.6741 143.5,67.5 Z"/></g>
<g><path style="opacity:1" fill="#faef6d" d="M 143.5,67.5 C 144.833,67.5 146.167,67.5 147.5,67.5C 147.5,68.8333 147.5,70.1667 147.5,71.5C 146.167,71.5 144.833,71.5 143.5,71.5C 143.5,70.1667 143.5,68.8333 143.5,67.5 Z"/></g>
<g><path style="opacity:1" fill="#f6c13a" d="M 74.5,68.5 C 75.8333,68.5 77.1667,68.5 78.5,68.5C 78.5,69.5 78.5,70.5 78.5,71.5C 79.5,71.5 80.5,71.5 81.5,71.5C 84.1667,71.5 86.8333,71.5 89.5,71.5C 89.5,72.5 89.5,73.5 89.5,74.5C 85.6286,74.185 81.9619,74.5184 78.5,75.5C 78.1667,75.5 77.8333,75.5 77.5,75.5C 77.1667,75.5 76.8333,75.5 76.5,75.5C 74.6565,73.7211 73.9898,71.3878 74.5,68.5 Z"/></g>
<g><path style="opacity:1" fill="#d78d0e" d="M 111.5,68.5 C 112.5,68.5 113.5,68.5 114.5,68.5C 114.5,73.1667 114.5,77.8333 114.5,82.5C 113.167,82.5 111.833,82.5 110.5,82.5C 110.5,81.5 110.5,80.5 110.5,79.5C 111.434,78.4324 111.768,77.099 111.5,75.5C 108.833,75.5 106.167,75.5 103.5,75.5C 95.1667,75.5 86.8333,75.5 78.5,75.5C 81.9619,74.5184 85.6286,74.185 89.5,74.5C 89.5,73.5 89.5,72.5 89.5,71.5C 90.8333,71.5 92.1667,71.5 93.5,71.5C 99.5,71.5 105.5,71.5 111.5,71.5C 111.5,70.5 111.5,69.5 111.5,68.5 Z"/></g>
<g><path style="opacity:1" fill="#b35b28" d="M 76.5,75.5 C 76.8333,75.5 77.1667,75.5 77.5,75.5C 77.6567,76.8734 77.49,78.2068 77,79.5C 76.5,78.3333 75.6667,77.5 74.5,77C 75.4158,76.7216 76.0825,76.2216 76.5,75.5 Z"/></g>
<g><path style="opacity:1" fill="#761e00" d="M 78.5,75.5 C 86.8333,75.5 95.1667,75.5 103.5,75.5C 103.5,76.8333 103.5,78.1667 103.5,79.5C 95.1667,79.5 86.8333,79.5 78.5,79.5C 78.5,78.1667 78.5,76.8333 78.5,75.5 Z"/></g>
<g><path style="opacity:1" fill="#87490c" d="M 143.5,75.5 C 148.5,75.5 153.5,75.5 158.5,75.5C 158.5,76.8333 158.5,78.1667 158.5,79.5C 154.486,79.3345 150.486,79.5012 146.5,80C 186.494,80.833 186.494,81.333 146.5,81.5C 146.667,113.168 146.5,144.835 146,176.5C 145.832,143.997 145.332,111.664 144.5,79.5C 143.566,78.4324 143.232,77.099 143.5,75.5 Z"/></g>
<g><path style="opacity:1" fill="#522306" d="M 158.5,75.5 C 164.5,75.5 170.5,75.5 176.5,75.5C 176.5,76.8333 176.5,78.1667 176.5,79.5C 170.5,79.5 164.5,79.5 158.5,79.5C 158.5,78.1667 158.5,76.8333 158.5,75.5 Z"/></g>
<g><path style="opacity:1" fill="#582505" d="M 103.5,75.5 C 106.167,75.5 108.833,75.5 111.5,75.5C 111.768,77.099 111.434,78.4324 110.5,79.5C 110.167,79.5 109.833,79.5 109.5,79.5C 109.167,79.5 108.833,79.5 108.5,79.5C 106.833,79.5 105.167,79.5 103.5,79.5C 103.5,78.1667 103.5,76.8333 103.5,75.5 Z"/></g>
<g><path style="opacity:1" fill="#975802" d="M 132.5,78.5 C 132.833,78.5 133.167,78.5 133.5,78.5C 135.833,78.5 138.167,78.5 140.5,78.5C 140.5,79.8333 140.5,81.1667 140.5,82.5C 140.167,82.5 139.833,82.5 139.5,82.5C 139.5,81.5 139.5,80.5 139.5,79.5C 137.5,79.5 135.5,79.5 133.5,79.5C 133.5,80.5 133.5,81.5 133.5,82.5C 132.662,82.1583 132.328,81.4916 132.5,80.5C 132.5,80.1667 132.5,79.8333 132.5,79.5C 132.5,79.1667 132.5,78.8333 132.5,78.5 Z"/></g>
<g><path style="opacity:1" fill="#853c0f" d="M 139.5,82.5 C 138.532,84.6074 138.198,86.9407 138.5,89.5C 138.167,89.5 137.833,89.5 137.5,89.5C 137.5,87.8333 137.5,86.1667 137.5,84.5C 136.833,83.1667 136.167,83.1667 135.5,84.5C 135.5,86.1667 135.5,87.8333 135.5,89.5C 135.5,89.8333 135.5,90.1667 135.5,90.5C 134.833,87.8333 134.167,85.1667 133.5,82.5C 133.5,81.5 133.5,80.5 133.5,79.5C 135.5,79.5 137.5,79.5 139.5,79.5C 139.5,80.5 139.5,81.5 139.5,82.5 Z M 135.5,84.5 C 136.167,84.5 136.833,84.5 137.5,84.5C 137.5,86.1667 137.5,87.8333 137.5,89.5C 136.833,89.5 136.167,89.5 135.5,89.5C 135.5,87.8333 135.5,86.1667 135.5,84.5 Z"/></g>
<g><path style="opacity:1" fill="#e09002" d="M 139.5,82.5 C 139.833,82.5 140.167,82.5 140.5,82.5C 141.833,82.5 143.167,82.5 144.5,82.5C 144.5,92.1667 144.5,101.833 144.5,111.5C 143.167,111.5 141.833,111.5 140.5,111.5C 140.825,103.981 140.492,96.6476 139.5,89.5C 139.5,87.1667 139.5,84.8333 139.5,82.5 Z"/></g>
<g><path style="opacity:1" fill="#d68f0c" d="M 132.5,79.5 C 132.5,79.8333 132.5,80.1667 132.5,80.5C 131.168,89.141 130.502,98.141 130.5,107.5C 130.667,116.5 130.833,125.5 131,134.5C 131.333,134.833 131.667,135.167 132,135.5C 132.169,120.661 132.669,105.994 133.5,91.5C 133.5,106.5 133.5,121.5 133.5,136.5C 132.167,136.5 130.833,136.5 129.5,136.5C 129.5,117.5 129.5,98.5 129.5,79.5C 130.5,79.5 131.5,79.5 132.5,79.5 Z"/></g>
<g><path style="opacity:1" fill="#faf391" d="M 125.5,86.5 C 125.5,91.1667 125.5,95.8333 125.5,100.5C 124.504,100.414 123.671,100.748 123,101.5C 122.5,108.158 122.334,114.825 122.5,121.5C 123.5,121.5 124.5,121.5 125.5,121.5C 125.5,130.167 125.5,138.833 125.5,147.5C 124.178,147.67 123.011,147.337 122,146.5C 121.37,126.492 121.536,106.492 122.5,86.5C 123.5,86.5 124.5,86.5 125.5,86.5 Z"/></g>
<g><path style="opacity:1" fill="#d2963e" d="M 108.5,79.5 C 108.833,79.5 109.167,79.5 109.5,79.5C 109.667,121.501 109.5,163.501 109,205.5C 108.5,164.168 108.333,122.835 108.5,81.5C 98.4944,81.6665 88.4944,81.4998 78.5,81C 88.6751,80.8302 98.6751,80.3302 108.5,79.5 Z"/></g>
<g><path style="opacity:1" fill="#e89304" d="M 132.5,80.5 C 132.328,81.4916 132.662,82.1583 133.5,82.5C 133.5,85.5 133.5,88.5 133.5,91.5C 132.669,105.994 132.169,120.661 132,135.5C 131.667,135.167 131.333,134.833 131,134.5C 130.833,125.5 130.667,116.5 130.5,107.5C 130.502,98.141 131.168,89.141 132.5,80.5 Z"/></g>
<g><path style="opacity:1" fill="#f8f163" d="M 125.5,86.5 C 124.5,86.5 123.5,86.5 122.5,86.5C 121.536,106.492 121.37,126.492 122,146.5C 123.011,147.337 124.178,147.67 125.5,147.5C 125.5,148.833 125.5,150.167 125.5,151.5C 125.5,152.5 125.5,153.5 125.5,154.5C 125.5,155.5 125.5,156.5 125.5,157.5C 124.167,157.5 122.833,157.5 121.5,157.5C 121.5,161.167 121.5,164.833 121.5,168.5C 120.041,168.433 118.708,168.766 117.5,169.5C 117.477,142.959 117.477,116.625 117.5,90.5C 118.473,88.0521 118.806,85.3854 118.5,82.5C 119.5,82.5 120.5,82.5 121.5,82.5C 121.5,83.5 121.5,84.5 121.5,85.5C 123.099,85.2322 124.432,85.5655 125.5,86.5 Z"/></g>
<g><path style="opacity:1" fill="#f8f6c9" d="M 110.5,100.5 C 112.167,100.5 113.833,100.5 115.5,100.5C 115.5,119.5 115.5,138.5 115.5,157.5C 114.508,149.684 114.174,141.684 114.5,133.5C 113.167,133.5 111.833,133.5 110.5,133.5C 110.5,122.5 110.5,111.5 110.5,100.5 Z"/></g>
<g><path style="opacity:1" fill="#faf9b9" d="M 125.5,100.5 C 125.5,107.5 125.5,114.5 125.5,121.5C 124.5,121.5 123.5,121.5 122.5,121.5C 122.334,114.825 122.5,108.158 123,101.5C 123.671,100.748 124.504,100.414 125.5,100.5 Z"/></g>
<g><path style="opacity:1" fill="#f4de31" d="M 135.5,89.5 C 136.167,89.5 136.833,89.5 137.5,89.5C 137.833,89.5 138.167,89.5 138.5,89.5C 138.833,89.5 139.167,89.5 139.5,89.5C 140.492,96.6476 140.825,103.981 140.5,111.5C 141.833,111.5 143.167,111.5 144.5,111.5C 144.5,112.833 144.5,114.167 144.5,115.5C 142.833,115.5 141.167,115.5 139.5,115.5C 139.5,116.5 139.5,117.5 139.5,118.5C 138.167,118.5 136.833,118.5 135.5,118.5C 135.5,109.167 135.5,99.8333 135.5,90.5C 135.5,90.1667 135.5,89.8333 135.5,89.5 Z"/></g>
<g><path style="opacity:1" fill="#f2ba32" d="M 144.5,115.5 C 144.5,127.5 144.5,139.5 144.5,151.5C 142.833,151.5 141.167,151.5 139.5,151.5C 139.5,147.833 139.5,144.167 139.5,140.5C 138.5,140.5 137.5,140.5 136.5,140.5C 136.5,139.833 136.167,139.5 135.5,139.5C 135.5,132.5 135.5,125.5 135.5,118.5C 136.833,118.5 138.167,118.5 139.5,118.5C 139.5,117.5 139.5,116.5 139.5,115.5C 141.167,115.5 142.833,115.5 144.5,115.5 Z"/></g>
<g><path style="opacity:1" fill="#f9f59b" d="M 110.5,133.5 C 111.833,133.5 113.167,133.5 114.5,133.5C 114.174,141.684 114.508,149.684 115.5,157.5C 115.5,162.833 115.5,168.167 115.5,173.5C 114.833,173.5 114.5,173.167 114.5,172.5C 114.5,167.833 114.5,163.167 114.5,158.5C 113.167,158.5 111.833,158.5 110.5,158.5C 110.5,150.167 110.5,141.833 110.5,133.5 Z"/></g>
<g><path style="opacity:1" fill="#f5e933" d="M 129.5,136.5 C 130.833,136.5 132.167,136.5 133.5,136.5C 133.5,147.167 133.5,157.833 133.5,168.5C 132.167,168.5 130.833,168.5 129.5,168.5C 129.5,163.833 129.5,159.167 129.5,154.5C 128.167,154.5 126.833,154.5 125.5,154.5C 125.5,153.5 125.5,152.5 125.5,151.5C 126.833,151.5 128.167,151.5 129.5,151.5C 129.5,146.5 129.5,141.5 129.5,136.5 Z"/></g>
<g><path style="opacity:1" fill="#be841d" d="M 135.5,139.5 C 136.167,139.5 136.5,139.833 136.5,140.5C 136.5,146.167 136.5,151.833 136.5,157.5C 137.833,157.5 139.167,157.5 140.5,157.5C 140.768,159.099 140.434,160.432 139.5,161.5C 139.5,160.5 139.5,159.5 139.5,158.5C 138.167,158.5 136.833,158.5 135.5,158.5C 135.5,152.167 135.5,145.833 135.5,139.5 Z"/></g>
<g><path style="opacity:1" fill="#de8e04" d="M 136.5,140.5 C 137.5,140.5 138.5,140.5 139.5,140.5C 139.5,144.167 139.5,147.833 139.5,151.5C 141.167,151.5 142.833,151.5 144.5,151.5C 144.5,156.167 144.5,160.833 144.5,165.5C 142.833,165.5 141.167,165.5 139.5,165.5C 139.5,164.5 139.5,163.5 139.5,162.5C 139.5,162.167 139.5,161.833 139.5,161.5C 140.434,160.432 140.768,159.099 140.5,157.5C 139.167,157.5 137.833,157.5 136.5,157.5C 136.5,151.833 136.5,146.167 136.5,140.5 Z"/></g>
<g><path style="opacity:1" fill="#faf75b" d="M 110.5,158.5 C 111.833,158.5 113.167,158.5 114.5,158.5C 114.5,163.167 114.5,167.833 114.5,172.5C 113.167,172.5 111.833,172.5 110.5,172.5C 110.5,167.833 110.5,163.167 110.5,158.5 Z"/></g>
<g><path style="opacity:1" fill="#5e3410" d="M 135.5,158.5 C 136.833,158.5 138.167,158.5 139.5,158.5C 139.5,159.5 139.5,160.5 139.5,161.5C 139.5,161.833 139.5,162.167 139.5,162.5C 138.674,166.982 138.174,171.649 138,176.5C 137.8,172.247 137.3,168.08 136.5,164C 137.712,162.893 137.379,162.393 135.5,162.5C 135.5,162.167 135.5,161.833 135.5,161.5C 135.5,160.5 135.5,159.5 135.5,158.5 Z"/></g>
<g><path style="opacity:1" fill="#5a2306" d="M 139.5,165.5 C 141.167,165.5 142.833,165.5 144.5,165.5C 144.5,169.167 144.5,172.833 144.5,176.5C 142.833,176.5 141.167,176.5 139.5,176.5C 139.5,172.833 139.5,169.167 139.5,165.5 Z"/></g>
<g><path style="opacity:1" fill="#34290a" d="M 139.5,178.5 C 140.946,177.387 142.613,177.22 144.5,178C 142.866,178.494 141.199,178.66 139.5,178.5 Z"/></g>
<g><path style="opacity:1" fill="#f8e52e" d="M 125.5,157.5 C 125.5,162.5 125.5,167.5 125.5,172.5C 126.5,172.5 127.5,172.5 128.5,172.5C 128.5,173.5 128.5,174.5 128.5,175.5C 127.5,175.5 126.5,175.5 125.5,175.5C 125.666,182.841 125.5,190.174 125,197.5C 123.048,199.337 122.048,201.671 122,204.5C 121,205.833 120,205.833 119,204.5C 117.783,198.899 117.283,193.232 117.5,187.5C 116.5,187.5 115.5,187.5 114.5,187.5C 114.5,185.167 114.5,182.833 114.5,180.5C 113.167,180.5 111.833,180.5 110.5,180.5C 110.5,177.833 110.5,175.167 110.5,172.5C 111.833,172.5 113.167,172.5 114.5,172.5C 114.5,173.167 114.833,173.5 115.5,173.5C 115.517,175.028 116.184,175.528 117.5,175C 117.146,173.374 117.146,171.541 117.5,169.5C 118.708,168.766 120.041,168.433 121.5,168.5C 121.5,164.833 121.5,161.167 121.5,157.5C 122.833,157.5 124.167,157.5 125.5,157.5 Z"/></g>
<g><path style="opacity:1" fill="#f3bd31" d="M 125.5,154.5 C 126.833,154.5 128.167,154.5 129.5,154.5C 129.5,159.167 129.5,163.833 129.5,168.5C 130.833,168.5 132.167,168.5 133.5,168.5C 133.5,168.833 133.5,169.167 133.5,169.5C 132.167,169.5 130.833,169.5 129.5,169.5C 129.5,178.833 129.5,188.167 129.5,197.5C 130.833,197.5 132.167,197.5 133.5,197.5C 133.5,206.167 133.5,214.833 133.5,223.5C 132.514,227.97 132.181,232.637 132.5,237.5C 129.269,237.962 125.936,237.962 122.5,237.5C 122.5,233.833 122.5,230.167 122.5,226.5C 121.167,226.5 119.833,226.5 118.5,226.5C 118.5,219.5 118.5,212.5 118.5,205.5C 117.167,205.5 115.833,205.5 114.5,205.5C 114.5,202.833 114.5,200.167 114.5,197.5C 113.167,197.5 111.833,197.5 110.5,197.5C 110.5,191.833 110.5,186.167 110.5,180.5C 111.833,180.5 113.167,180.5 114.5,180.5C 114.5,182.833 114.5,185.167 114.5,187.5C 115.5,187.5 116.5,187.5 117.5,187.5C 117.283,193.232 117.783,198.899 119,204.5C 120,205.833 121,205.833 122,204.5C 122.048,201.671 123.048,199.337 125,197.5C 125.5,190.174 125.666,182.841 125.5,175.5C 126.5,175.5 127.5,175.5 128.5,175.5C 128.5,174.5 128.5,173.5 128.5,172.5C 127.5,172.5 126.5,172.5 125.5,172.5C 125.5,167.5 125.5,162.5 125.5,157.5C 125.5,156.5 125.5,155.5 125.5,154.5 Z"/></g>
<g><path style="opacity:1" fill="#e69102" d="M 133.5,169.5 C 133.5,178.833 133.5,188.167 133.5,197.5C 132.167,197.5 130.833,197.5 129.5,197.5C 129.5,188.167 129.5,178.833 129.5,169.5C 130.833,169.5 132.167,169.5 133.5,169.5 Z"/></g>
<g><path style="opacity:1" fill="#f6f669" d="M 139.5,192.5 C 140.946,191.387 142.613,191.22 144.5,192C 142.866,192.494 141.199,192.66 139.5,192.5 Z"/></g>
<g><path style="opacity:1" fill="#f7ed2d" d="M 144.5,197.5 C 142.833,197.5 141.167,197.5 139.5,197.5C 139.5,196.167 139.5,194.833 139.5,193.5C 141.167,193.5 142.833,193.5 144.5,193.5C 144.5,194.833 144.5,196.167 144.5,197.5 Z"/></g>
<g><path style="opacity:1" fill="#dcbd4d" d="M 138.5,204.5 C 138.167,204.5 137.833,204.5 137.5,204.5C 137.389,203.883 137.056,203.383 136.5,203C 137.288,199.924 137.788,196.758 138,193.5C 138.499,197.152 138.665,200.818 138.5,204.5 Z"/></g>
<g><path style="opacity:1" fill="#f4c237" d="M 139.5,197.5 C 141.167,197.5 142.833,197.5 144.5,197.5C 144.5,198.833 144.5,200.167 144.5,201.5C 142.833,201.5 141.167,201.5 139.5,201.5C 139.5,200.167 139.5,198.833 139.5,197.5 Z"/></g>
<g><path style="opacity:1" fill="#de8704" d="M 110.5,197.5 C 111.833,197.5 113.167,197.5 114.5,197.5C 114.5,200.167 114.5,202.833 114.5,205.5C 113.671,213.657 113.171,221.99 113,230.5C 113.118,222.399 112.284,214.566 110.5,207C 111.167,206.667 111.833,206.333 112.5,206C 110.679,203.544 110.012,200.711 110.5,197.5 Z"/></g>
<g><path style="opacity:1" fill="#732400" d="M 139.5,201.5 C 141.167,201.5 142.833,201.5 144.5,201.5C 144.843,203.483 144.176,204.817 142.5,205.5C 142.167,205.5 141.833,205.5 141.5,205.5C 141.167,205.5 140.833,205.5 140.5,205.5C 140.5,204.833 140.167,204.5 139.5,204.5C 139.5,203.5 139.5,202.5 139.5,201.5 Z"/></g>
<g><path style="opacity:1" fill="#975420" d="M 145.5,193.5 C 146.645,197.311 146.812,201.311 146,205.5C 145.501,201.514 145.334,197.514 145.5,193.5 Z"/></g>
<g><path style="opacity:1" fill="#f6eb2d" d="M 136.5,204.5 C 136.833,204.5 137.167,204.5 137.5,204.5C 137.833,204.5 138.167,204.5 138.5,204.5C 138.833,204.5 139.167,204.5 139.5,204.5C 140.167,204.5 140.5,204.833 140.5,205.5C 140.5,207.5 140.5,209.5 140.5,211.5C 139.167,211.5 137.833,211.5 136.5,211.5C 136.5,209.167 136.5,206.833 136.5,204.5 Z"/></g>
<g><path style="opacity:1" fill="#e09004" d="M 114.5,205.5 C 115.833,205.5 117.167,205.5 118.5,205.5C 118.5,212.5 118.5,219.5 118.5,226.5C 117.167,226.5 115.833,226.5 114.5,226.5C 114.5,219.5 114.5,212.5 114.5,205.5 Z"/></g>
<g><path style="opacity:1" fill="#f0b93a" d="M 135.5,161.5 C 135.5,161.833 135.5,162.167 135.5,162.5C 135.171,176.677 135.504,190.677 136.5,204.5C 136.5,206.833 136.5,209.167 136.5,211.5C 137.833,211.5 139.167,211.5 140.5,211.5C 140.5,216.5 140.5,221.5 140.5,226.5C 139.167,226.5 137.833,226.5 136.5,226.5C 136.167,226.5 135.833,226.5 135.5,226.5C 134.487,204.881 134.487,183.214 135.5,161.5 Z"/></g>
<g><path style="opacity:1" fill="#d4a82f" d="M 141.5,205.5 C 141.833,205.5 142.167,205.5 142.5,205.5C 142.918,206.222 143.584,206.722 144.5,207C 142.716,214.566 141.882,222.399 142,230.5C 141.5,222.173 141.334,213.84 141.5,205.5 Z"/></g>
<g><path style="opacity:1" fill="#994a10" d="M 114.5,226.5 C 115.833,226.5 117.167,226.5 118.5,226.5C 118.768,228.099 118.434,229.432 117.5,230.5C 116.677,233.977 116.177,237.644 116,241.5C 115.355,236.223 114.855,231.223 114.5,226.5 Z"/></g>
<g><path style="opacity:1" fill="#dd910f" d="M 133.5,223.5 C 133.285,225.179 133.952,226.179 135.5,226.5C 135.833,226.5 136.167,226.5 136.5,226.5C 136.232,228.099 136.566,229.432 137.5,230.5C 137.5,232.833 137.5,235.167 137.5,237.5C 135.833,237.5 134.167,237.5 132.5,237.5C 132.181,232.637 132.514,227.97 133.5,223.5 Z"/></g>
<g><path style="opacity:1" fill="#854b14" d="M 136.5,226.5 C 137.833,226.5 139.167,226.5 140.5,226.5C 140.145,231.223 139.645,236.223 139,241.5C 138.823,237.644 138.323,233.977 137.5,230.5C 136.566,229.432 136.232,228.099 136.5,226.5 Z"/></g>
<g><path style="opacity:1" fill="#dc900a" d="M 118.5,226.5 C 119.833,226.5 121.167,226.5 122.5,226.5C 122.5,230.167 122.5,233.833 122.5,237.5C 120.833,237.5 119.167,237.5 117.5,237.5C 117.5,235.167 117.5,232.833 117.5,230.5C 118.434,229.432 118.768,228.099 118.5,226.5 Z"/></g>
<g><path style="opacity:1" fill="#802801" d="M 117.5,237.5 C 119.167,237.5 120.833,237.5 122.5,237.5C 122.768,239.099 122.434,240.432 121.5,241.5C 121.167,241.5 120.833,241.5 120.5,241.5C 120.167,241.5 119.833,241.5 119.5,241.5C 117.824,240.817 117.157,239.483 117.5,237.5 Z"/></g>
<g><path style="opacity:1" fill="#e6a020" d="M 122.5,237.5 C 125.936,237.962 129.269,237.962 132.5,237.5C 132.232,239.099 132.566,240.432 133.5,241.5C 133.5,242.5 133.5,243.5 133.5,244.5C 132.167,244.5 130.833,244.5 129.5,244.5C 129.5,245.833 129.5,247.167 129.5,248.5C 129.5,249.5 129.5,250.5 129.5,251.5C 128.167,251.5 126.833,251.5 125.5,251.5C 125.5,250.5 125.5,249.5 125.5,248.5C 124.167,248.5 122.833,248.5 121.5,248.5C 121.5,246.167 121.5,243.833 121.5,241.5C 122.434,240.432 122.768,239.099 122.5,237.5 Z"/></g>
<g><path style="opacity:1" fill="#7d3206" d="M 132.5,237.5 C 134.167,237.5 135.833,237.5 137.5,237.5C 137.773,239.451 137.107,240.951 135.5,242C 135.833,242.333 136.167,242.667 136.5,243C 135.712,246.076 135.212,249.242 135,252.5C 134.823,248.644 134.323,244.977 133.5,241.5C 132.566,240.432 132.232,239.099 132.5,237.5 Z"/></g>
<g><path style="opacity:1" fill="#a8651a" d="M 119.5,241.5 C 119.833,241.5 120.167,241.5 120.5,241.5C 120.665,245.182 120.499,248.848 120,252.5C 119.788,249.242 119.288,246.076 118.5,243C 119.056,242.617 119.389,242.117 119.5,241.5 Z"/></g>
<g><path style="opacity:1" fill="#762502" d="M 133.5,244.5 C 133.5,245.833 133.5,247.167 133.5,248.5C 132.167,248.5 130.833,248.5 129.5,248.5C 129.5,247.167 129.5,245.833 129.5,244.5C 130.833,244.5 132.167,244.5 133.5,244.5 Z"/></g>
<g><path style="opacity:1" fill="#522406" d="M 121.5,248.5 C 122.833,248.5 124.167,248.5 125.5,248.5C 125.5,249.5 125.5,250.5 125.5,251.5C 126.833,251.5 128.167,251.5 129.5,251.5C 129.5,250.5 129.5,249.5 129.5,248.5C 130.833,248.5 132.167,248.5 133.5,248.5C 133.773,250.451 133.107,251.951 131.5,253C 132.167,253.333 132.833,253.667 133.5,254C 132.584,254.278 131.918,254.778 131.5,255.5C 131.167,255.5 130.833,255.5 130.5,255.5C 130.167,251.5 129.833,251.5 129.5,255.5C 128.167,255.5 126.833,255.5 125.5,255.5C 125.167,251.5 124.833,251.5 124.5,255.5C 124.167,255.5 123.833,255.5 123.5,255.5C 123.082,254.778 122.416,254.278 121.5,254C 122.167,253.667 122.833,253.333 123.5,253C 121.893,251.951 121.227,250.451 121.5,248.5 Z"/></g>
</svg>
